<?xml version="1.0" encoding="UTF-8" standalone="no" ?>
<!DOCTYPE svg PUBLIC "-//W3C//DTD SVG 1.1//EN" "http://www.w3.org/Graphics/SVG/1.1/DTD/svg11.dtd">
<svg xmlns="http://www.w3.org/2000/svg" xmlns:xlink="http://www.w3.org/1999/xlink" version="1.1" width="1280" height="1024" viewBox="0 0 1280 1024" xml:space="preserve">
<desc>Created with Fabric.js 5.3.0</desc>
<defs>
</defs>
<g transform="matrix(1 0 0 1 640 512)" id="background-logo"  >
<linearGradient id="SVGID_408324_408361" gradientUnits="userSpaceOnUse" gradientTransform="matrix(1 0 0 1 -640 -512)"  x1="0" y1="0" x2="0" y2="1024">
<stop offset="0%" style="stop-color:rgb(91,36,122);stop-opacity: 1"/>
<stop offset="100%" style="stop-color:rgb(27,206,223);stop-opacity: 1"/>
</linearGradient>
<rect style="stroke: none; stroke-width: 0; stroke-dasharray: none; stroke-linecap: butt; stroke-dashoffset: 0; stroke-linejoin: miter; stroke-miterlimit: 4; fill: url(#SVGID_408324_408361); fill-rule: nonzero; opacity: 1;"  paint-order="stroke"  x="-640" y="-512" rx="0" ry="0" width="1280" height="1024" />
</g>
<g transform="matrix(1.7420082001082142 0 0 1.7420082001082142 640 401.3643420937022)" id="logo-logo"  >
<g style=""  paint-order="stroke"   >
		<g transform="matrix(0.8921268993714967 0 0 0.8921268993714967 0 0)"  >
<g style=""  paint-order="stroke"   >
		<g transform="matrix(1 0 0 1 0 0)"  >
<linearGradient id="SVGID_408349" gradientUnits="userSpaceOnUse" gradientTransform="matrix(1 0 0 1 0 0)"  x1="0" y1="0" x2="0" y2="200">
<stop offset="0%" style="stop-color:rgb(23,234,217);stop-opacity: 1"/>
<stop offset="100%" style="stop-color:rgb(96,120,234);stop-opacity: 1"/>
</linearGradient>
<path style="stroke: none; stroke-width: 1; stroke-dasharray: none; stroke-linecap: butt; stroke-dashoffset: 0; stroke-linejoin: miter; stroke-miterlimit: 4; fill: url(#SVGID_408349); fill-rule: nonzero; opacity: 1;"  paint-order="stroke"  transform=" translate(-100, -99.83500000000001)" d="M 34.32 182.84 L 48.9 182.84 L 48.9 199.67000000000002 L 67.06 199.67000000000002 L 67.06 183.15 L 82.46000000000001 183.15 L 82.46000000000001 199.67000000000002 L 100.61000000000001 199.67000000000002 L 100.61000000000001 183.15 L 115.72000000000001 183.15 L 115.72000000000001 199.67000000000002 L 133.87 199.67000000000002 L 133.87 183.15 L 148.73000000000002 183.15 L 148.73000000000002 199.67000000000002 L 166.89000000000001 199.67000000000002 L 166.89000000000001 183.15 L 181.89000000000001 183.15 L 181.89000000000001 199.67000000000002 L 200 199.67000000000002 L 200 182 L 183.1 182 L 183.1 167.09 L 200 167.09 L 200 149.09 L 183.1 149.09 L 183.1 133.69 L 200 133.69 L 200 115.69 L 183.1 115.69 L 183.1 100.69 L 200 100.69 L 200 82.69 L 183.12 82.69 L 183.12 67.69 L 200 67.69 L 200 49.69 L 183.16 49.69 L 183.16 34.18 L 200 34.18 L 200 16.18 L 183.16 16.18 L 183.16 0.05 L 166.31 0.05 L 166.31 16.150000000000002 L 150.11 16.150000000000002 L 150.11 0 L 133.26 0 L 133.26 16.1 L 116.85999999999999 16.1 L 116.85999999999999 0 L 100 0 L 100 16.1 L 83.93 16.1 L 83.93 0 L 67.08 0 L 67.08 16.1 L 50.57 16.1 L 50.57 0 L 33.72 0 L 33.72 16.1 L 16.88 16.1 L 16.88 0 L 0 0 L 0 16.73 L 16.21 16.73 L 16.21 33.47 L 0 33.47 L 0 50.2 L 16.19 50.2 L 16.19 66.64 L 0 66.64 L 0 83.37 L 16.16 83.37 L 16.16 99.65 L 0 99.65 L 0 116.39 L 16.16 116.39 L 16.16 132.67000000000002 L 0 132.67000000000002 L 0 149.4 L 16.16 149.4 L 16.16 166.1 L 0 166.1 L 0 182.84 L 16.16 182.84 L 16.16 199.67000000000002 L 34.32 199.67000000000002 Z M 167 16.78 L 182 16.78 L 182 33.52 L 167 33.52 Z M 167 50.25 L 182 50.25 L 182 67 L 167 67 Z M 167 83.68 L 182 83.68 L 182 100 L 167 100 Z M 167 116.68 L 182 116.68 L 182 133 L 167 133 Z M 167 149.68 L 182 149.68 L 182 166.38 L 167 166.38 Z M 150.11 34.18 L 166.31 34.18 L 166.31 49.59 L 150.11 49.59 Z M 149.43 67.62 L 166.28 67.62 L 166.28 82.62 L 149.43 82.62 Z M 149.43 100.62 L 166.28 100.62 L 166.28 115.62 L 149.4 115.62 Z M 149.43 133.62 L 166.28 133.62 L 166.28 149.02 L 149.4 149.02 Z M 149.43 167.06 L 166.28 167.06 L 166.28 182 L 149.4 182 Z M 133.89 16.75 L 148.79 16.75 L 148.79 33.48 L 133.89 33.48 Z M 133.89 50.22 L 148.76 50.22 L 148.76 67 L 133.89 67 Z M 133.89 83.68 L 148.75 83.68 L 148.75 100 L 133.87 100 Z M 133.89 116.68 L 148.75 116.68 L 148.75 133 L 133.87 133 Z M 133.89 149.68 L 148.75 149.68 L 148.75 166.38 L 133.87 166.38 Z M 116.88999999999999 34.110000000000014 L 133.29 34.110000000000014 L 133.29 49.27 L 116.88999999999999 49.27 Z M 116.88999999999999 67.26000000000002 L 132.61999999999998 67.26000000000002 L 132.61999999999998 82.26000000000002 L 116.85 82.26000000000002 Z M 116.88999999999999 100.26000000000002 L 132.63 100.26000000000002 L 132.63 115.26000000000002 L 116.82 115.26000000000002 Z M 116.88999999999999 133.26000000000002 L 132.63 133.26000000000002 L 132.63 148.67000000000002 L 116.82 148.67000000000002 Z M 116.88999999999999 166.70000000000002 L 132.63 166.70000000000002 L 132.63 181.58 L 116.82 181.58 Z M 100.71999999999998 16.700000000000017 L 115.80999999999999 16.700000000000017 L 115.80999999999999 33.48 L 100.65 33.48 Z M 100.71999999999998 50.170000000000016 L 115.81999999999998 50.170000000000016 L 115.81999999999998 67 L 100.71999999999998 67 Z M 100.71999999999998 83.63000000000002 L 115.82999999999998 83.63000000000002 L 115.82999999999998 100 L 100.61 100 Z M 100.71999999999998 116.63000000000002 L 115.82999999999998 116.63000000000002 L 115.82999999999998 133 L 100.61 133 Z M 100.71999999999998 149.63000000000002 L 115.82999999999998 149.63000000000002 L 115.82999999999998 166.33 L 100.61 166.33 Z M 82.57 166.33 L 67.06 166.33 L 67.06 149.63000000000002 L 82.46000000000001 149.63000000000002 Z M 82.57 132.9 L 67.06 132.9 L 67.06 116.7 L 82.46000000000001 116.7 Z M 82.57 99.9 L 67.06 99.9 L 67.06 83.68 L 82.46000000000001 83.68 Z M 84.03999999999999 34.08000000000001 L 100 34.08000000000001 L 100 49.59 L 83.93 49.59 Z M 83.25999999999999 67.55000000000001 L 100 67.55000000000001 L 100 82.55000000000001 L 83.15 82.55000000000001 Z M 83.25999999999999 100.55000000000001 L 100 100.55000000000001 L 100 115.55000000000001 L 83.13 115.55000000000001 Z M 83.25999999999999 133.55 L 100 133.55 L 100 148.95000000000002 L 83.13 148.95000000000002 Z M 83.25999999999999 166.99 L 100 166.99 L 100 182 L 83.13 182 Z M 67.72 16.75 L 82.5 16.75 L 82.5 33.48 L 67.72 33.48 Z M 67.08 50.22 L 82.48 50.22 L 82.48 67 L 67.08 67 Z M 50.57 34.15 L 67.08 34.15 L 67.08 49.59 L 50.57 49.59 Z M 50.57 67.62 L 66.31 67.62 L 66.31 82.62 L 50.55 82.62 Z M 50.57 100.62 L 66.28 100.62 L 66.28 115.62 L 50.53 115.62 Z M 50.57 133.62 L 66.28 133.62 L 66.28 149.02 L 50.53 149.02 Z M 50.57 167.06 L 66.28 167.06 L 66.28 182 L 50.53 182 Z M 34.36 16.73 L 49.56 16.73 L 49.56 33.47 L 34.36 33.47 Z M 34.36 50.2 L 48.93 50.2 L 48.93 66.64 L 34.34 66.64 Z M 34.36 83.37 L 48.9 83.37 L 48.9 99.65 L 34.32 99.65 Z M 34.36 116.37 L 48.9 116.37 L 48.9 132.65 L 34.32 132.65 Z M 34.36 149.37 L 48.9 149.37 L 48.9 166.07 L 34.32 166.07 Z M 33.72 181.62 L 16.84 181.62 L 16.84 166.77 L 33.68 166.77 Z M 33.72 148.71 L 16.84 148.71 L 16.84 133.33 L 33.68 133.33 Z M 33.72 115.27000000000001 L 16.84 115.27000000000001 L 16.84 100.27000000000001 L 33.68 100.27000000000001 Z M 33.72 82.27000000000001 L 16.86 82.27000000000001 L 16.86 67.27000000000001 L 33.71 67.27000000000001 Z M 33.72 49.27000000000001 L 16.88 49.27000000000001 L 16.88 34.13 L 33.72 34.13 Z" stroke-linecap="round" />
</g>
</g>
</g>
		<g transform="matrix(0.6040051769107776 0 0 0.6040051769107776 0 0)"  >
<g style=""  paint-order="stroke"   >
		<g transform="matrix(1 0 0 1 0 0)"  >
<linearGradient id="SVGID_408350" gradientUnits="userSpaceOnUse" gradientTransform="matrix(1 0 0 1 -100 -100)"  x1="0" y1="0" x2="0" y2="200">
<stop offset="0%" style="stop-color:rgb(23,234,217);stop-opacity: 1"/>
<stop offset="100%" style="stop-color:rgb(96,120,234);stop-opacity: 1"/>
</linearGradient>
<rect style="stroke: none; stroke-width: 1; stroke-dasharray: none; stroke-linecap: butt; stroke-dashoffset: 0; stroke-linejoin: miter; stroke-miterlimit: 4; fill: url(#SVGID_408350); fill-rule: nonzero; opacity: 1;"  paint-order="stroke"  x="-100" y="-100" rx="0" ry="0" width="200" height="200" />
</g>
</g>
</g>
</g>
</g>
<g transform="matrix(0.7695193887998976 1.7603045221928924 -1.7603045221928924 0.7695193887998976 420.4029926716185 569.5347489258087)" id="text-logo-0"  >
<g style=""  paint-order="stroke"   >
		<g transform="matrix(1 0 0 1 0 0)" id="b101b396-500b-4510-a304-bab759a88a8b-path-0"  >
<linearGradient id="SVGID_408351" gradientUnits="userSpaceOnUse" gradientTransform="matrix(1 0 0 1 -0.07000000000000028 -50.12)"  x1="0.06999999999999318" y1="-11.419799999999967" x2="0.06999999999999318" y2="67.68020000000001">
<stop offset="0%" style="stop-color:rgb(113,23,234);stop-opacity: 1"/>
<stop offset="100%" style="stop-color:rgb(234,96,96);stop-opacity: 1"/>
</linearGradient>
<path style="stroke: rgb(255,255,255); stroke-width: 0; stroke-dasharray: none; stroke-linecap: butt; stroke-dashoffset: 0; stroke-linejoin: miter; stroke-miterlimit: 4; fill: url(#SVGID_408351); fill-rule: nonzero; opacity: 1;"  paint-order="stroke"  transform=" translate(-16.205, 23.939999999999998)" d="M 32.34 -47.32 Q 32.48 -44.94 32.48 -43.12 L 32.48 -43.12 Q 32.48 -39.9 31.92 -35.56 L 31.92 -35.56 Q 29.68 -35.91 28.7 -35.91 L 28.7 -35.91 Q 26.81 -35.91 23.52 -35.7 L 23.52 -35.7 L 23.17 -35.7 Q 23.1 -35.07 23.1 -31.99 L 23.1 -31.99 Q 23.1 -25.34 23.59 1.61 L 23.59 1.61 Q 21.98 1.89 19.18 1.89 L 19.18 1.89 L 17.15 1.89 Q 13.23 1.89 11.06 2.24 L 11.06 2.24 Q 10.85 1.89 10.71 0.7 L 10.71 0.7 L 9.66 0.84 Q 9.31 0.21 9.31 -1.82 L 9.31 -1.82 L 9.38 -12.53 Q 9.38 -22.54 8.75 -35.77 L 8.75 -35.77 Q 8.19 -35.84 7 -35.84 L 7 -35.84 Q 6.58 -35.84 5.5 -35.84 Q 4.41 -35.84 3.54 -35.91 Q 2.66 -35.98 1.89 -36.26 L 1.89 -36.26 Q 1.82 -36.4 1.79 -36.68 Q 1.75 -36.96 1.47 -37.17 Q 1.19 -37.38 0.49 -37.66 L 0.49 -37.66 Q 0.28 -38.15 0.11 -40.18 Q -0.07 -42.21 -0.07 -44.59 L -0.07 -44.59 Q -0.07 -48.37 0 -49.98 L 0 -49.98 Q 4.41 -49.98 6.65 -50.05 L 6.65 -50.05 L 13.37 -50.12 Q 23.52 -50.12 30.31 -49.35 L 30.31 -49.35 L 30.94 -48.72 L 30.94 -48.02 L 31.71 -47.95 L 32.34 -47.32 Z M 13.37 -49.35 L 0.7 -49.28 L 0.77 -49.14 Q 0.63 -48.23 0.63 -46.48 L 0.63 -46.48 Q 0.63 -38.85 1.05 -38.15 L 1.05 -38.15 Q 1.4 -38.01 3.22 -38.01 L 3.22 -38.01 Q 5.67 -38.01 7.07 -37.91 Q 8.47 -37.8 9.45 -37.31 L 9.45 -37.31 L 9.52 -37.24 Q 10.08 -24.5 10.08 -12.04 L 10.08 -12.04 Q 10.08 -6.65 9.94 -2.73 L 9.94 -2.73 L 9.94 -0.63 L 10.01 0.07 Q 11.27 -0.14 12.74 -0.14 L 12.74 -0.14 L 15.68 -0.14 Q 19.81 -0.14 21.49 -0.42 L 21.49 -0.42 L 21.49 -0.56 Q 21 -27.44 21 -33.39 L 21 -33.39 L 21 -35.91 Q 21 -37.31 21.14 -37.59 L 21.14 -37.59 L 21.21 -37.8 L 21.42 -37.8 Q 25.06 -38.01 27.16 -38.01 L 27.16 -38.01 Q 28.84 -38.01 29.96 -37.8 L 29.96 -37.8 Q 30.38 -40.88 30.38 -44.52 L 30.38 -44.52 Q 30.38 -45.99 30.24 -48.65 L 30.24 -48.65 Q 23.31 -49.35 13.37 -49.35 L 13.37 -49.35 Z" stroke-linecap="round" />
</g>
</g>
</g>
<g transform="matrix(1.3418779284435083 1.3748438914101755 -1.3748438914101755 1.3418779284435085 473.34356888747936 645.1062061593655)" id="text-logo-1"  >
<g style=""  paint-order="stroke"   >
		<g transform="matrix(1 0 0 1 0 0)" id="7c9e5202-e1cb-4078-9e96-89350b7b6ccb-path-0"  >
<linearGradient id="SVGID_408352" gradientUnits="userSpaceOnUse" gradientTransform="matrix(1 0 0 1 1.4699999999999989 -50.89)"  x1="-1.4699999999999989" y1="-10.649799999999978" x2="-1.4699999999999989" y2="68.4502">
<stop offset="0%" style="stop-color:rgb(113,23,234);stop-opacity: 1"/>
<stop offset="100%" style="stop-color:rgb(234,96,96);stop-opacity: 1"/>
</linearGradient>
<path style="stroke: rgb(255,255,255); stroke-width: 0; stroke-dasharray: none; stroke-linecap: butt; stroke-dashoffset: 0; stroke-linejoin: miter; stroke-miterlimit: 4; fill: url(#SVGID_408352); fill-rule: nonzero; opacity: 1;"  paint-order="stroke"  transform=" translate(-20.02, 24.36)" d="M 1.47 -49.49 Q 6.51 -50.19 9.49 -50.54 Q 12.46 -50.89 15.61 -50.89 L 15.61 -50.89 Q 21.28 -50.89 25.38 -49.56 Q 29.47 -48.23 32.27 -45.01 L 32.27 -45.01 Q 37.31 -38.78 37.31 -33.46 L 37.31 -33.46 Q 37.31 -30.45 35.98 -27.34 Q 34.65 -24.22 32.13 -21.98 Q 29.61 -19.74 26.18 -19.39 L 26.18 -19.39 Q 27.44 -17.15 30.59 -12.53 L 30.59 -12.53 Q 33.39 -8.47 35.14 -5.46 Q 36.89 -2.45 38.15 0.98 L 38.15 0.98 L 38.57 1.89 L 37.59 1.89 Q 36.47 1.89 33.81 2.03 L 33.81 2.03 Q 30.73 2.17 29.12 2.17 L 29.12 2.17 Q 27.65 2.17 25.41 2.03 L 25.41 2.03 Q 25.27 1.82 25.13 1.44 Q 24.99 1.05 24.75 0.84 Q 24.5 0.63 24.01 0.63 L 24.01 0.63 Q 20.37 -7.98 16.52 -13.93 L 16.52 -13.93 L 16.52 -12.11 Q 16.52 -10.15 16.87 -3.85 L 16.87 -3.85 Q 17.08 -0.91 17.08 1.05 L 17.08 1.05 Q 15.61 1.75 13.83 1.96 Q 12.04 2.17 9.59 2.17 L 9.59 2.17 L 6.51 2.1 L 2.45 2.1 Q 2.38 0.7 2.38 -0.91 L 2.38 -0.91 L 2.31 -7.28 L 2.31 -12.95 Q 2.31 -23.87 2.07 -35.35 Q 1.82 -46.83 1.47 -49.49 L 1.47 -49.49 Z M 23.66 -21.35 L 24.01 -21.42 Q 27.58 -21.7 30.1 -23.77 Q 32.62 -25.83 33.88 -28.84 Q 35.14 -31.85 35.14 -34.86 L 35.14 -34.86 Q 35.14 -38.57 33.29 -42 Q 31.43 -45.43 28.11 -47.6 Q 24.78 -49.77 20.72 -49.91 L 20.72 -49.91 Q 18.41 -50.19 15.54 -50.19 L 15.54 -50.19 Q 12.39 -50.19 9.63 -49.88 Q 6.86 -49.56 2.31 -48.93 L 2.31 -48.93 Q 2.66 -46.9 2.87 -36.47 Q 3.08 -26.04 3.08 -14.21 L 3.08 -14.21 L 3.08 -7 Q 3.08 -3.64 3.01 -2.31 L 3.01 -2.31 L 3.01 -0.14 Q 3.22 -0.07 3.5 -0.07 L 3.5 -0.07 Q 4.41 -0.07 4.97 0 L 4.97 0 L 7.77 0.07 Q 10.36 0.07 12.11 -0.11 Q 13.86 -0.28 14.98 -0.77 L 14.98 -0.77 Q 14.42 -7.7 14.42 -13.44 L 14.42 -13.44 Q 14.42 -16.1 14.63 -17.85 L 14.63 -17.85 L 14.77 -17.64 Q 17.43 -14.42 20.02 -9.49 Q 22.61 -4.55 24.5 -0.07 L 24.5 -0.07 L 24.57 -0.07 Q 26.95 0.07 28.21 0.07 L 28.21 0.07 Q 29.75 0.07 32.55 -0.07 L 32.55 -0.07 Q 35.07 -0.21 36.12 -0.21 L 36.12 -0.21 Q 34.86 -3.57 32.97 -6.76 Q 31.08 -9.94 28.35 -13.93 L 28.35 -13.93 Q 27.65 -15.05 26.15 -17.33 Q 24.64 -19.6 23.66 -21.35 L 23.66 -21.35 Z M 17.5 -40.25 Q 19.88 -40.25 21.42 -38.82 Q 22.96 -37.38 22.96 -34.93 L 22.96 -34.93 Q 22.96 -32.41 21.53 -31.36 Q 20.09 -30.31 16.87 -30.31 L 16.87 -30.31 Q 14.7 -30.31 12.95 -30.52 L 12.95 -30.52 L 12.88 -30.52 Q 12.67 -31.71 12.67 -35.42 L 12.67 -35.42 L 12.53 -39.13 Q 15.05 -40.25 17.5 -40.25 L 17.5 -40.25 Z M 18.9 -38.15 Q 16.94 -38.15 14.63 -37.24 L 14.63 -37.24 Q 14.77 -35.42 14.77 -34.02 L 14.77 -34.02 L 14.7 -31.99 L 14.77 -31.01 L 16.87 -31.01 Q 18.48 -31.01 19.95 -31.22 L 19.95 -31.22 L 19.88 -31.22 Q 21.07 -31.5 21.7 -32.52 Q 22.33 -33.53 22.33 -34.93 L 22.33 -34.93 Q 22.33 -38.15 18.9 -38.15 L 18.9 -38.15 Z" stroke-linecap="round" />
</g>
</g>
</g>
<g transform="matrix(1.738815573461141 0.8169164596705832 -0.8169164596705834 1.7388155734611412 544.5265107862921 695.797248492911)" id="text-logo-2"  >
<g style=""  paint-order="stroke"   >
		<g transform="matrix(1 0 0 1 0 -3.55271e-15)" id="a657cd2d-d88c-458a-8703-d82313cc3aa0-path-0"  >
<linearGradient id="SVGID_408353" gradientUnits="userSpaceOnUse" gradientTransform="matrix(1 0 0 1 -0.629999999999999 -50.12)"  x1="0.6300000000000097" y1="-11.419799999999974" x2="0.6300000000000097" y2="67.68020000000001">
<stop offset="0%" style="stop-color:rgb(113,23,234);stop-opacity: 1"/>
<stop offset="100%" style="stop-color:rgb(234,96,96);stop-opacity: 1"/>
</linearGradient>
<path style="stroke: rgb(255,255,255); stroke-width: 0; stroke-dasharray: none; stroke-linecap: butt; stroke-dashoffset: 0; stroke-linejoin: miter; stroke-miterlimit: 4; fill: url(#SVGID_408353); fill-rule: nonzero; opacity: 1;"  paint-order="stroke"  transform=" translate(-16.1, 23.834999999999997)" d="M 32.83 1.96 Q 30.03 2.45 28.35 2.45 L 28.35 2.45 Q 25.13 2.45 22.05 1.75 L 22.05 1.75 Q 21.77 0.91 21.56 0.7 Q 21.35 0.49 21.07 0.46 Q 20.79 0.42 20.65 0.35 L 20.65 0.35 Q 20.09 -1.4 19.11 -5.32 L 19.11 -5.32 Q 18.55 -7.63 18.17 -8.68 Q 17.78 -9.73 17.36 -9.73 L 17.36 -9.73 Q 16.8 -9.73 16.42 -9.7 Q 16.03 -9.66 15.4 -9.66 L 15.4 -9.66 Q 14.91 -8.33 14.42 -5.39 L 14.42 -5.39 Q 13.86 -2.66 13.44 -1.05 Q 13.02 0.56 12.25 2.03 L 12.25 2.03 Q 12.04 2.03 11.66 2.1 Q 11.27 2.17 10.71 2.17 L 10.71 2.17 Q 9.94 2.1 7.49 2.1 L 7.49 2.1 L 4.48 2.03 L 0.77 1.96 L 0.98 0.56 L -0.63 0.56 L 0.35 -4.62 Q 2.31 -15.96 4.62 -26.99 Q 6.93 -38.01 10.43 -49.63 L 10.43 -49.63 Q 11.69 -49.77 11.9 -49.77 L 11.9 -49.77 Q 12.18 -49.77 13.72 -49.7 Q 15.26 -49.63 20.16 -50.12 L 20.16 -50.12 Q 20.44 -48.93 20.51 -48.58 L 20.51 -48.58 L 21.56 -48.72 Q 22.19 -45.15 25.97 -29.4 L 25.97 -29.4 Q 27.37 -23.66 27.44 -23.31 L 27.44 -23.31 L 32.83 1.96 Z M 25.34 -24.57 L 19.6 -49.35 Q 16.52 -49.07 13.51 -49.07 L 13.51 -49.07 L 12.04 -49.07 Q 11.2 -49.07 10.99 -49 L 10.99 -49 Q 7.63 -37.73 5.43 -27.09 Q 3.22 -16.45 1.05 -4.41 L 1.05 -4.41 Q 0.84 -3.08 0.63 -1.93 Q 0.42 -0.77 0.28 -0.14 L 0.28 -0.14 L 0.42 -0.07 L 2.1 -0.07 L 7.63 0 Q 8.33 0.07 9.31 0.07 L 9.31 0.07 Q 10.08 0.07 10.22 0 L 10.22 0 L 10.43 -0.07 Q 11.06 -1.12 11.41 -2.59 Q 11.76 -4.06 12.18 -6.51 L 12.18 -6.51 Q 12.88 -10.43 13.51 -11.76 L 13.51 -11.76 Q 14.28 -11.76 14.77 -11.8 Q 15.26 -11.83 15.54 -11.83 L 15.54 -11.83 L 16.45 -11.83 L 17.85 -11.69 Q 18.41 -10.43 19.01 -8.19 Q 19.6 -5.95 19.74 -5.39 L 19.74 -5.39 Q 20.44 -2.1 21.14 -0.28 L 21.14 -0.28 L 21.21 -0.28 Q 23.94 0.35 26.95 0.35 L 26.95 0.35 Q 28.7 0.35 30.59 0 L 30.59 0 L 30.59 -0.07 L 25.34 -24.57 Z M 14.7 -19.95 L 13.02 -20.02 Q 13.86 -26.25 13.79 -25.69 L 13.79 -25.69 Q 14.35 -30.38 14.74 -32.52 Q 15.12 -34.65 15.54 -34.65 L 15.54 -34.65 Q 16.03 -34.65 16.63 -31.36 Q 17.22 -28.07 18.2 -20.02 L 18.2 -20.02 L 14.7 -19.95 Z M 17.36 -20.72 L 16.45 -28.7 L 15.33 -20.72 L 17.36 -20.72 Z" stroke-linecap="round" />
</g>
</g>
</g>
<g transform="matrix(1.9116151562043522 0.19120563579959335 -0.19120563579959338 1.9116151562043524 627.2619378793167 717.1760563107499)" id="text-logo-3"  >
<g style=""  paint-order="stroke"   >
		<g transform="matrix(1 0 0 1 0 0)" id="7bfbe03d-1b27-4510-8b23-f2ab1c99c535-path-0"  >
<linearGradient id="SVGID_408354" gradientUnits="userSpaceOnUse" gradientTransform="matrix(1 0 0 1 1.4699999999999989 -51.52)"  x1="-1.4699999999999989" y1="-10.019799999999975" x2="-1.4699999999999989" y2="69.0802">
<stop offset="0%" style="stop-color:rgb(113,23,234);stop-opacity: 1"/>
<stop offset="100%" style="stop-color:rgb(234,96,96);stop-opacity: 1"/>
</linearGradient>
<path style="stroke: rgb(255,255,255); stroke-width: 0; stroke-dasharray: none; stroke-linecap: butt; stroke-dashoffset: 0; stroke-linejoin: miter; stroke-miterlimit: 4; fill: url(#SVGID_408354); fill-rule: nonzero; opacity: 1;"  paint-order="stroke"  transform=" translate(-18.305, 24.220000000000002)" d="M 14.7 -22.96 L 14.7 -19.39 Q 14.7 -15.82 15.12 -13.72 Q 15.54 -11.62 16.94 -11.34 L 16.94 -11.34 L 16.87 -11.34 L 17.5 -11.27 Q 19.25 -11.27 20.09 -11.97 Q 20.93 -12.67 21.18 -13.79 Q 21.42 -14.91 21.63 -16.94 L 21.63 -16.94 Q 21.77 -19.04 22.12 -20.79 L 22.12 -20.79 Q 23.59 -20.58 24.99 -20.58 L 24.99 -20.58 L 28.28 -20.65 Q 30.94 -20.65 32.55 -20.23 L 32.55 -20.23 Q 32.69 -19.88 32.73 -19.64 Q 32.76 -19.39 32.9 -19.04 L 32.9 -19.04 L 33.95 -18.83 Q 34.93 -16.1 34.93 -13.23 L 34.93 -13.23 Q 34.93 -8.33 32.66 -4.62 Q 30.38 -0.91 26.32 1.09 Q 22.26 3.08 17.08 3.08 L 17.08 3.08 Q 13.44 3.08 10.08 1.68 Q 6.72 0.28 4.45 -2.35 Q 2.17 -4.97 1.82 -8.47 L 1.82 -8.47 Q 1.47 -15.47 1.47 -23.52 L 1.47 -23.52 L 1.54 -34.23 Q 1.61 -35.28 1.61 -37.52 L 1.61 -37.52 L 1.54 -38.29 Q 1.54 -40.67 2.45 -42.56 L 2.45 -42.56 L 2.45 -42.49 Q 4.06 -46.97 7.25 -49.25 Q 10.43 -51.52 15.89 -51.52 L 15.89 -51.52 Q 20.72 -51.52 25.2 -48.93 Q 29.68 -46.34 32.41 -42.11 Q 35.14 -37.87 35.14 -33.25 L 35.14 -33.25 Q 35.14 -30.52 34.02 -27.44 L 34.02 -27.44 Q 31.99 -26.95 29.61 -26.95 L 29.61 -26.95 Q 26.53 -26.95 22.68 -27.72 L 22.68 -27.72 L 22.54 -28.84 Q 21.56 -28.98 21.35 -29.33 Q 21.14 -29.68 21.11 -30.7 Q 21.07 -31.71 21 -32.2 L 21 -32.2 Q 20.93 -32.76 20.9 -34.13 Q 20.86 -35.49 20.3 -36.23 Q 19.74 -36.96 18.41 -36.96 L 18.41 -36.96 Q 17.64 -36.96 16.7 -36.68 Q 15.75 -36.4 15.4 -36.05 L 15.4 -36.05 Q 15.26 -35.91 14.98 -32.52 Q 14.7 -29.12 14.7 -22.96 L 14.7 -22.96 Z M 17.29 -39.06 Q 19.18 -39.06 20.09 -38.12 Q 21 -37.17 21.28 -35.84 Q 21.56 -34.51 21.7 -32.27 L 21.7 -32.27 Q 21.7 -31.85 21.77 -31.08 Q 21.84 -30.31 21.91 -29.75 L 21.91 -29.75 Q 24.99 -29.05 28.21 -29.05 L 28.21 -29.05 Q 30.17 -29.05 32.13 -29.47 L 32.13 -29.47 Q 33.04 -31.92 33.04 -34.65 L 33.04 -34.65 Q 33.04 -39.06 30.66 -42.77 Q 28.28 -46.48 24.33 -48.65 Q 20.37 -50.82 15.89 -50.82 L 15.89 -50.82 Q 11.13 -50.82 7.91 -48.83 Q 4.69 -46.83 3.08 -42.28 L 3.08 -42.28 Q 2.24 -40.25 2.24 -38.43 L 2.24 -38.43 Q 2.24 -37.8 2.31 -37.59 L 2.31 -37.59 Q 2.31 -35.42 2.24 -34.37 L 2.24 -34.37 L 2.17 -23.52 Q 2.17 -15.54 2.52 -8.54 L 2.52 -8.54 Q 2.94 -3.78 6.79 -1.4 Q 10.64 0.98 15.68 0.98 L 15.68 0.98 Q 20.58 0.98 24.5 -0.95 Q 28.42 -2.87 30.63 -6.41 Q 32.83 -9.94 32.83 -14.63 L 32.83 -14.63 Q 32.83 -17.29 32.06 -19.6 L 32.06 -19.6 Q 30.73 -19.95 28.42 -19.95 L 28.42 -19.95 L 24.71 -19.88 Q 23.94 -19.88 22.68 -20.02 L 22.68 -20.02 Q 22.4 -19.04 22.26 -16.87 L 22.26 -16.87 Q 22.12 -14.84 21.81 -13.55 Q 21.49 -12.25 20.48 -11.41 Q 19.46 -10.57 17.43 -10.57 L 17.43 -10.57 Q 14.42 -10.57 13.48 -13.69 Q 12.53 -16.8 12.53 -21.84 L 12.53 -21.84 L 12.53 -24.36 Q 12.53 -30.94 12.88 -34.3 Q 13.23 -37.66 13.51 -37.94 L 13.51 -37.94 Q 14.07 -38.5 15.19 -38.78 Q 16.31 -39.06 17.29 -39.06 L 17.29 -39.06 Z" stroke-linecap="round" />
</g>
</g>
</g>
<g transform="matrix(1.8581778707983605 -0.4878597145358351 0.48785971453583515 1.8581778707983607 717.9536055567796 709.8216597981301)" id="text-logo-4"  >
<g style=""  paint-order="stroke"   >
		<g transform="matrix(1 0 0 1 0 0)" id="d12e5df7-a887-4f16-aa8a-25f4f979621e-path-0"  >
<linearGradient id="SVGID_408355" gradientUnits="userSpaceOnUse" gradientTransform="matrix(1 0 0 1 2.030000000000001 -49.63)"  x1="-2.0299999999999976" y1="-11.909799999999976" x2="-2.0299999999999976" y2="67.1902">
<stop offset="0%" style="stop-color:rgb(113,23,234);stop-opacity: 1"/>
<stop offset="100%" style="stop-color:rgb(234,96,96);stop-opacity: 1"/>
</linearGradient>
<path style="stroke: rgb(255,255,255); stroke-width: 0; stroke-dasharray: none; stroke-linecap: butt; stroke-dashoffset: 0; stroke-linejoin: miter; stroke-miterlimit: 4; fill: url(#SVGID_408355); fill-rule: nonzero; opacity: 1;"  paint-order="stroke"  transform=" translate(-18.41, 23.695)" d="M 34.79 1.61 Q 32.55 2.17 29.96 2.17 L 29.96 2.17 L 26.88 2.1 Q 24.78 1.96 23.73 1.96 L 23.73 1.96 Q 23.31 1.54 22.61 0.56 L 22.61 0.56 L 22.33 0.56 Q 18.76 -3.22 15.05 -12.74 L 15.05 -12.74 Q 15.05 -10.15 15.19 -5.11 L 15.19 -5.11 Q 15.33 -0.35 15.33 1.61 L 15.33 1.61 Q 13.23 2.24 9.8 2.24 L 9.8 2.24 Q 6.58 2.24 3.71 1.61 L 3.71 1.61 Q 3.57 0.7 3.4 0.53 Q 3.22 0.35 2.91 0.32 Q 2.59 0.28 2.31 0.21 L 2.31 0.21 Q 2.03 -5.88 2.03 -14 L 2.03 -14 Q 2.03 -22.61 2.24 -31.43 L 2.24 -31.43 Q 2.31 -34.3 2.38 -39.87 Q 2.45 -45.43 2.45 -49.63 L 2.45 -49.63 L 4.13 -49.63 L 8.89 -49.56 Q 10.36 -49.49 13.23 -49.49 L 13.23 -49.49 L 13.23 -48.09 L 14.63 -48.09 Q 14.7 -45.36 14.7 -38.99 L 14.7 -38.99 L 14.7 -36.12 Q 15.47 -37.45 16.73 -39.97 L 16.73 -39.97 Q 17.08 -40.53 18.66 -43.47 Q 20.23 -46.41 22.47 -49.56 L 22.47 -49.56 L 23.8 -49.49 L 28.42 -49.56 Q 30.87 -49.56 33.25 -49.21 L 33.25 -49.21 L 32.83 -48.02 L 34.65 -47.81 Q 33.53 -44.17 31.82 -40.78 Q 30.1 -37.38 27.37 -32.69 L 27.37 -32.69 Q 24.01 -27.02 22.61 -23.8 L 22.61 -23.8 L 34.79 1.61 Z M 20.44 -25.13 Q 21.7 -28.07 23.52 -31.26 Q 25.34 -34.44 25.69 -35 L 25.69 -35 Q 28.35 -39.55 29.89 -42.6 Q 31.43 -45.64 32.34 -48.65 L 32.34 -48.65 Q 30.66 -48.86 28.91 -48.86 L 28.91 -48.86 L 24.64 -48.79 Q 23.38 -48.79 22.82 -48.86 L 22.82 -48.86 Q 21.07 -46.27 18.27 -41.09 L 18.27 -41.09 Q 16.59 -37.94 15.51 -36.09 Q 14.42 -34.23 13.02 -32.41 L 13.02 -32.41 L 12.74 -32.06 L 12.67 -31.99 Q 12.6 -33.67 12.6 -37.17 L 12.6 -37.17 L 12.6 -43.61 Q 12.6 -47.11 12.53 -48.79 L 12.53 -48.79 Q 9.94 -48.79 8.61 -48.86 L 8.61 -48.86 L 4.48 -48.93 Q 3.64 -48.93 3.36 -48.79 Q 3.08 -48.65 3.08 -48.23 L 3.08 -48.23 Q 3.08 -39.62 2.87 -31.08 L 2.87 -31.08 Q 2.73 -19.74 2.73 -14.07 L 2.73 -14.07 Q 2.73 -6.44 3.01 -0.35 L 3.01 -0.35 Q 5.32 0.14 8.4 0.14 L 8.4 0.14 Q 11.55 0.14 13.23 -0.35 L 13.23 -0.35 Q 13.23 -2.38 13.09 -7.14 L 13.09 -7.14 Q 12.95 -12.46 12.95 -14.98 L 12.95 -14.98 Q 12.95 -17.29 13.02 -18.41 L 13.02 -18.41 Q 14.21 -16.24 16.17 -11.83 L 16.17 -11.83 Q 18.06 -7.7 19.53 -4.9 Q 21 -2.1 22.68 -0.14 L 22.68 -0.14 L 24.29 -0.07 Q 26.95 0.07 28.42 0.07 L 28.42 0.07 Q 30.73 0.07 32.41 -0.28 L 32.41 -0.28 L 20.44 -25.13 Z" stroke-linecap="round" />
</g>
</g>
</g>
<g transform="matrix(1.659899073374769 -0.9672472108004756 0.9672472108004756 1.659899073374769 777.467221167968 684.1459184158722)" id="text-logo-5"  >
<g style=""  paint-order="stroke"   >
		<g transform="matrix(1 0 0 1 0 0)" id="eee2db9d-f63c-47f8-993b-2ec9feabb8ce-path-0"  >
<linearGradient id="SVGID_408356" gradientUnits="userSpaceOnUse" gradientTransform="matrix(1 0 0 1 1.9600000000000009 -50.26)"  x1="-1.9599999999999866" y1="-11.279799999999973" x2="-1.9599999999999866" y2="67.8202">
<stop offset="0%" style="stop-color:rgb(113,23,234);stop-opacity: 1"/>
<stop offset="100%" style="stop-color:rgb(234,96,96);stop-opacity: 1"/>
</linearGradient>
<path style="stroke: rgb(255,255,255); stroke-width: 0; stroke-dasharray: none; stroke-linecap: butt; stroke-dashoffset: 0; stroke-linejoin: miter; stroke-miterlimit: 4; fill: url(#SVGID_408356); fill-rule: nonzero; opacity: 1;"  paint-order="stroke"  transform=" translate(-9.8, 23.799999999999997)" d="M 16.24 -49.91 L 16.24 -48.51 L 17.64 -48.51 L 17.64 -47.53 Q 17.64 -42 17.57 -37.8 Q 17.5 -33.6 17.43 -30.8 L 17.43 -30.8 Q 17.15 -19.46 17.15 -13.58 L 17.15 -13.58 Q 17.15 -5.95 17.57 1.33 L 17.57 1.33 Q 16.45 2.45 12.46 2.45 L 12.46 2.45 L 9.31 2.38 Q 8.26 2.31 6.37 2.31 L 6.37 2.31 Q 4.83 2.31 3.36 2.66 L 3.36 2.66 L 3.43 0.98 Q 2.24 1.12 1.96 1.26 L 1.96 1.26 Q 2.45 -5.95 2.45 -11.9 L 2.45 -11.9 Q 2.45 -15.89 2.38 -18.94 Q 2.31 -21.98 2.24 -23.94 L 2.24 -23.94 Q 1.96 -31.92 1.96 -36.05 L 1.96 -36.05 Q 1.96 -42.91 2.66 -50.12 L 2.66 -50.12 Q 3.64 -50.26 3.92 -50.26 L 3.92 -50.26 Q 5.88 -50.26 7.98 -50.12 L 7.98 -50.12 Q 9.59 -49.91 12.18 -49.91 L 12.18 -49.91 L 16.24 -49.91 Z M 12.25 -49.21 Q 10.57 -49.21 6.79 -49.42 L 6.79 -49.42 Q 4.69 -49.56 3.57 -49.56 L 3.57 -49.56 L 3.29 -49.56 L 3.29 -49.42 Q 2.66 -43.75 2.66 -36.12 L 2.66 -36.12 Q 2.66 -32.06 2.73 -29.05 Q 2.8 -26.04 2.87 -24.01 L 2.87 -24.01 Q 3.15 -15.75 3.15 -11.48 L 3.15 -11.48 Q 3.15 -5.6 2.73 0.28 L 2.73 0.28 Q 3.71 0.14 4.34 0.14 L 4.34 0.14 Q 5.18 0.14 7.42 0.28 L 7.42 0.28 Q 9.94 0.42 11.34 0.42 L 11.34 0.42 Q 14.7 0.42 15.47 -0.35 L 15.47 -0.35 Q 15.05 -7.91 15.05 -15.61 L 15.05 -15.61 Q 15.05 -21.35 15.33 -32.41 L 15.33 -32.41 Q 15.4 -35.21 15.47 -39.34 Q 15.54 -43.47 15.54 -48.93 L 15.54 -48.93 L 15.54 -49.21 L 12.25 -49.21 Z" stroke-linecap="round" />
</g>
</g>
</g>
<g transform="matrix(1.3223497275291816 -1.3936367169012218 1.3936367169012218 1.3223497275291816 835.0440361199016 638.1302235914184)" id="text-logo-6"  >
<g style=""  paint-order="stroke"   >
		<g transform="matrix(1 0 0 1 0 0)" id="848668ee-e66e-435e-8a45-2c75dce5a1c5-path-0"  >
<linearGradient id="SVGID_408357" gradientUnits="userSpaceOnUse" gradientTransform="matrix(1 0 0 1 2.169999999999998 -49.49)"  x1="-2.1700000000000017" y1="-12.049799999999976" x2="-2.1700000000000017" y2="67.0502">
<stop offset="0%" style="stop-color:rgb(113,23,234);stop-opacity: 1"/>
<stop offset="100%" style="stop-color:rgb(234,96,96);stop-opacity: 1"/>
</linearGradient>
<path style="stroke: rgb(255,255,255); stroke-width: 0; stroke-dasharray: none; stroke-linecap: butt; stroke-dashoffset: 0; stroke-linejoin: miter; stroke-miterlimit: 4; fill: url(#SVGID_408357); fill-rule: nonzero; opacity: 1;"  paint-order="stroke"  transform=" translate(-19.354999999999997, 23.59)" d="M 25.48 -29.12 L 26.53 -29.26 Q 27.02 -27.79 27.02 -26.04 L 27.02 -26.04 Q 27.02 -24.36 26.95 -23.45 L 26.95 -23.45 L 26.88 -20.3 Q 26.88 -19.25 26.95 -18.45 Q 27.02 -17.64 27.02 -17.01 L 27.02 -17.01 Q 27.02 -16.31 25.03 -16 Q 23.03 -15.68 19.46 -15.4 L 19.46 -15.4 Q 18.97 -15.33 18.52 -15.33 Q 18.06 -15.33 17.71 -15.26 L 17.71 -15.26 Q 17.22 -8.19 17.22 -0.84 L 17.22 -0.84 L 17.22 1.96 Q 14.14 2.31 9.03 2.31 L 9.03 2.31 Q 4.55 2.31 3.57 1.61 L 3.57 1.61 L 3.57 0.7 Q 2.45 0.49 2.17 0.21 L 2.17 0.21 Q 2.17 -14.07 2.24 -20.72 L 2.24 -20.72 L 2.31 -48.23 Q 4.69 -48.72 10.43 -49.11 Q 16.17 -49.49 21.63 -49.49 L 21.63 -49.49 Q 29.96 -49.49 35 -48.3 L 35 -48.3 L 35 -47.18 Q 35.28 -47.04 36.4 -46.9 L 36.4 -46.9 Q 36.4 -45.15 36.47 -44.03 L 36.47 -44.03 L 36.54 -40.11 Q 36.54 -38.5 36.33 -35.35 L 36.33 -35.35 L 29.89 -35 Q 20.86 -34.51 17.5 -34.23 L 17.5 -34.23 Q 17.08 -32.69 17.08 -31.78 L 17.08 -31.78 L 17.01 -31.01 Q 17.01 -30.31 18.06 -30.31 L 18.06 -30.31 Q 22.4 -30.31 25.13 -30.66 L 25.13 -30.66 Q 25.34 -30.17 25.48 -29.12 L 25.48 -29.12 Z M 24.92 -18.41 Q 24.78 -19.95 24.78 -21 L 24.78 -21 L 24.85 -24.36 Q 24.92 -25.41 24.92 -27.3 L 24.92 -27.3 Q 24.92 -29.26 24.71 -29.89 L 24.71 -29.89 Q 23.52 -29.68 21.39 -29.68 Q 19.25 -29.68 18.62 -29.68 L 18.62 -29.68 Q 17.15 -29.68 16.42 -29.89 Q 15.68 -30.1 15.33 -30.84 Q 14.98 -31.57 14.98 -33.18 L 14.98 -33.18 Q 14.98 -34.93 15.61 -36.26 L 15.61 -36.26 Q 18.69 -36.54 27.58 -37.03 L 27.58 -37.03 Q 30.8 -37.1 34.3 -37.38 L 34.3 -37.38 Q 34.37 -38.01 34.37 -39.62 L 34.37 -39.62 L 34.37 -42.49 L 34.3 -47.74 Q 30.1 -48.79 21.63 -48.79 L 21.63 -48.79 Q 16.17 -48.79 10.78 -48.41 Q 5.39 -48.02 3.01 -47.6 L 3.01 -47.6 L 3.01 -37.59 L 2.94 -21.42 Q 2.87 -17.01 2.87 -7.98 L 2.87 -7.98 L 2.94 -0.07 Q 3.43 0.21 7.63 0.21 L 7.63 0.21 Q 12.6 0.21 15.12 -0.07 L 15.12 -0.07 L 15.12 -2.24 Q 15.26 -12.18 15.68 -17.22 L 15.68 -17.22 L 15.75 -17.22 Q 17.15 -17.5 20.23 -17.78 L 20.23 -17.78 Q 23.31 -18.06 24.71 -18.27 L 24.71 -18.27 Q 24.92 -18.27 24.92 -18.41 L 24.92 -18.41 Z" stroke-linecap="round" />
</g>
</g>
</g>
<g transform="matrix(0.7645497077869287 -1.762468679130111 1.762468679130111 0.7645497077869287 881.6724510959239 565.2480211558914)" id="text-logo-7"  >
<g style=""  paint-order="stroke"   >
		<g transform="matrix(1 0 0 1 1.421085e-14 0)" id="6b225e85-d398-4429-a875-94381a0af51c-path-0"  >
<linearGradient id="SVGID_408358" gradientUnits="userSpaceOnUse" gradientTransform="matrix(1 0 0 1 -0.21000000000000085 -49.56)"  x1="0.20999999999999375" y1="-11.979799999999969" x2="0.20999999999999375" y2="67.12020000000001">
<stop offset="0%" style="stop-color:rgb(113,23,234);stop-opacity: 1"/>
<stop offset="100%" style="stop-color:rgb(234,96,96);stop-opacity: 1"/>
</linearGradient>
<path style="stroke: rgb(255,255,255); stroke-width: 0; stroke-dasharray: none; stroke-linecap: butt; stroke-dashoffset: 0; stroke-linejoin: miter; stroke-miterlimit: 4; fill: url(#SVGID_408358); fill-rule: nonzero; opacity: 1;"  paint-order="stroke"  transform=" translate(-16.695, 23.66)" d="M 33.6 -46.83 Q 31.85 -41.09 29.47 -35.6 Q 27.09 -30.1 22.82 -21.07 L 22.82 -21.07 Q 19.04 -13.16 16.8 -8.12 Q 14.56 -3.08 12.74 2.17 L 12.74 2.17 Q 12.04 2.03 11.27 2.03 L 11.27 2.03 L 7.98 2.1 Q 5.32 2.24 3.99 2.24 L 3.99 2.24 L 3.08 2.24 Q 2.03 2.24 1.19 2.1 L 1.19 2.1 L 1.61 0.84 Q 1.33 0.84 -0.21 0.7 L -0.21 0.7 Q 2.38 -7.28 9.24 -24.29 L 9.24 -24.29 Q 8.61 -27.16 7.53 -29.93 Q 6.44 -32.69 4.83 -36.33 L 4.83 -36.33 Q 2.94 -40.88 1.93 -43.51 Q 0.91 -46.13 0.21 -49.14 L 0.21 -49.14 Q 2.1 -49.14 3.85 -49.35 L 3.85 -49.35 Q 4.48 -49.42 5.43 -49.49 Q 6.37 -49.56 7.63 -49.56 L 7.63 -49.56 Q 10.99 -49.56 11.27 -47.81 L 11.27 -47.81 Q 11.83 -47.67 12.46 -47.39 L 12.46 -47.39 Q 13.44 -42.7 16.31 -35.49 L 16.31 -35.49 Q 16.94 -37.03 18.69 -42.35 L 18.69 -42.35 Q 18.97 -43.26 19.71 -45.4 Q 20.44 -47.53 21 -48.79 L 21 -48.79 Q 23.17 -49.35 28.84 -49.35 L 28.84 -49.35 Q 29.68 -49.35 32.2 -49.14 L 32.2 -49.14 L 32.2 -48.23 Q 32.13 -47.95 32.06 -47.88 L 32.06 -47.88 Q 33.18 -47.74 33.6 -47.74 L 33.6 -47.74 L 33.6 -46.83 Z M 31.5 -48.51 Q 30.38 -48.65 28.84 -48.65 L 28.84 -48.65 Q 23.87 -48.65 21.49 -48.16 L 21.49 -48.16 Q 20.44 -45.78 19.18 -41.72 L 19.18 -41.72 Q 18.34 -39.2 17.47 -36.75 Q 16.59 -34.3 15.82 -32.97 L 15.82 -32.97 Q 14.49 -35.84 12.78 -40.6 Q 11.06 -45.36 10.43 -48.3 L 10.43 -48.3 Q 9.24 -48.86 7.14 -48.86 L 7.14 -48.86 Q 6.09 -48.86 5.32 -48.79 Q 4.55 -48.72 3.99 -48.65 L 3.99 -48.65 Q 2.52 -48.44 1.12 -48.44 L 1.12 -48.44 Q 1.75 -45.78 2.8 -43.02 Q 3.85 -40.25 5.53 -36.4 L 5.53 -36.4 Q 7.35 -32.13 8.33 -29.54 Q 9.31 -26.95 9.94 -24.29 L 9.94 -24.29 L 9.94 -24.15 Q 6.44 -15.47 4.41 -10.19 Q 2.38 -4.9 0.77 0.07 L 0.77 0.07 L 0.91 0.07 Q 1.12 0.14 1.75 0.14 L 1.75 0.14 L 2.59 0.14 Q 3.78 0.14 6.02 0 L 6.02 0 L 9.17 -0.07 L 10.08 -0.07 Q 10.71 -0.07 10.92 0 L 10.92 0 Q 12.67 -5.18 14.84 -10.08 Q 17.01 -14.98 20.72 -22.82 L 20.72 -22.82 Q 24.64 -30.87 27.16 -36.68 Q 29.68 -42.49 31.5 -48.44 L 31.5 -48.44 L 31.5 -48.51 Z" stroke-linecap="round" />
</g>
</g>
</g>
<g transform="matrix(1.9211538461538462 0 0 1.9211538461538462 640.09365625 800.3953913865952)" id="tagline-84a4af04-1511-48de-b2a3-15039f3a3492-logo"  >
<g style=""  paint-order="stroke"   >
		<g transform="matrix(1 0 0 1 0 0)" id="tagline-84a4af04-1511-48de-b2a3-15039f3a3492-logo-path-0"  >
<linearGradient id="SVGID_408359" gradientUnits="userSpaceOnUse" gradientTransform="matrix(1 0 0 1 0.6500000000000057 -10.65)"  x1="-0.6560695838927586" y1="-2.5371000000000663" x2="-0.6560695838927586" y2="14.462899999999934">
<stop offset="0%" style="stop-color:rgb(98,39,116);stop-opacity: 1"/>
<stop offset="100%" style="stop-color:rgb(197,51,100);stop-opacity: 1"/>
</linearGradient>
<path style="stroke: none; stroke-width: 0; stroke-dasharray: none; stroke-linecap: butt; stroke-dashoffset: 0; stroke-linejoin: miter; stroke-miterlimit: 4; fill: url(#SVGID_408359); fill-rule: nonzero; opacity: 1;"  paint-order="stroke"  transform=" translate(-158.64000000000001, 5.25)" d="M 6.04 0.15 C 8.27 0.15 10.2 -1.21 11.01 -3.15 L 9.76 -3.15 C 9.09 -1.8 7.74 -0.97 6.04 -0.97 C 3.6 -0.97 1.84 -2.73 1.84 -5.25 C 1.84 -7.77 3.6 -9.53 6.04 -9.53 C 7.39 -9.53 8.54 -8.98 9.29 -8.08 L 10.17 -8.73 C 9.18 -9.9 7.69 -10.65 6.04 -10.65 C 3.07 -10.65 0.65 -8.22 0.65 -5.25 C 0.65 -2.28 3.07 0.15 6.04 0.15 Z M 22.19 -0.97 C 19.74 -0.97 17.98 -2.73 17.98 -5.25 C 17.98 -7.77 19.74 -9.53 22.19 -9.53 C 24.63 -9.53 26.38 -7.77 26.38 -5.25 C 26.38 -2.73 24.63 -0.97 22.19 -0.97 Z M 22.19 0.15 C 25.16 0.15 27.59 -2.28 27.59 -5.25 C 27.59 -8.22 25.16 -10.65 22.19 -10.65 C 19.21 -10.65 16.79 -8.22 16.79 -5.25 C 16.79 -2.28 19.21 0.15 22.19 0.15 Z M 34.44 -10.5 L 34.44 0 L 35.64 0 L 35.64 -8.28 L 42.39 0 L 43.14 0 L 43.14 -10.5 L 41.94 -10.5 L 41.94 -2.44 L 35.34 -10.5 Z M 50.95 -2.86 L 49.88 -2.38 C 50.54 -0.96 52.02 0.15 53.84 0.15 C 56.36 0.15 57.77 -1.47 57.77 -2.91 C 57.77 -4.95 55.58 -5.47 53.9 -5.94 C 52.38 -6.36 51.24 -6.72 51.24 -7.77 C 51.24 -8.8 52.5 -9.53 53.58 -9.53 C 55.41 -9.51 55.92 -8.69 56.25 -7.86 L 57.36 -8.28 C 56.98 -9.22 56.16 -10.65 53.58 -10.65 C 52.01 -10.63 50.04 -9.58 50.04 -7.77 C 50.04 -5.88 51.95 -5.31 53.56 -4.86 C 55.25 -4.39 56.56 -4.06 56.56 -2.91 C 56.56 -2.04 55.62 -0.97 53.84 -0.97 C 52.55 -0.97 51.47 -1.77 50.95 -2.86 Z M 64.52 -10.5 L 64.52 0 L 65.72 0 L 65.72 -10.5 Z M 73.53 -2.86 L 72.45 -2.38 C 73.11 -0.96 74.59 0.15 76.41 0.15 C 78.93 0.15 80.34 -1.47 80.34 -2.91 C 80.34 -4.95 78.15 -5.47 76.47 -5.94 C 74.95 -6.36 73.81 -6.72 73.81 -7.77 C 73.81 -8.8 75.08 -9.53 76.16 -9.53 C 77.98 -9.51 78.49 -8.69 78.83 -7.86 L 79.94 -8.28 C 79.56 -9.22 78.73 -10.65 76.16 -10.65 C 74.58 -10.63 72.61 -9.58 72.61 -7.77 C 72.61 -5.88 74.52 -5.31 76.14 -4.86 C 77.82 -4.39 79.14 -4.06 79.14 -2.91 C 79.14 -2.04 78.19 -0.97 76.41 -0.97 C 75.12 -0.97 74.04 -1.77 73.53 -2.86 Z M 89.17 0 L 90.38 0 L 90.38 -9.38 L 93.67 -9.38 L 93.67 -10.5 L 85.88 -10.5 L 85.88 -9.38 L 89.17 -9.38 Z M 100.32 -10.5 L 100.32 0 L 107.67 0 L 107.67 -1.13 L 101.52 -1.13 L 101.52 -4.69 L 106.17 -4.69 L 106.17 -5.82 L 101.52 -5.82 L 101.52 -9.38 L 107.67 -9.38 L 107.67 -10.5 Z M 114.45 -10.5 L 114.45 0 L 115.65 0 L 115.65 -8.28 L 122.4 0 L 123.15 0 L 123.15 -10.5 L 121.95 -10.5 L 121.95 -2.44 L 115.35 -10.5 Z M 135.41 0.15 C 137.63 0.15 139.56 -1.21 140.37 -3.15 L 139.13 -3.15 C 138.45 -1.8 137.1 -0.97 135.41 -0.97 C 132.96 -0.97 131.21 -2.73 131.21 -5.25 C 131.21 -7.77 132.96 -9.53 135.41 -9.53 C 136.76 -9.53 137.9 -8.98 138.65 -8.08 L 139.53 -8.73 C 138.54 -9.9 137.06 -10.65 135.41 -10.65 C 132.44 -10.65 130.01 -8.22 130.01 -5.25 C 130.01 -2.28 132.44 0.15 135.41 0.15 Z M 144.98 -10.5 L 148.77 -4.96 L 148.77 0 L 149.97 0 L 149.97 -4.93 L 153.78 -10.5 L 152.34 -10.5 L 149.39 -6.18 L 146.42 -10.5 Z M 168.36 -10.5 L 168.36 0 L 169.56 0 L 169.56 -8.69 L 173.16 0 L 174.36 0 L 177.96 -8.69 L 177.96 0 L 179.16 0 L 179.16 -10.5 L 177.51 -10.5 L 173.76 -1.45 L 170.01 -10.5 Z M 189.97 -10.5 L 185.77 0 L 187.03 0 L 188.07 -2.59 L 193.5 -2.59 L 194.53 0 L 195.79 0 L 191.59 -10.5 Z M 188.52 -3.72 L 190.78 -9.38 L 193.05 -3.72 Z M 202.41 -10.5 L 202.41 0 L 205.56 0 C 208.53 0 210.96 -2.28 210.96 -5.25 C 210.96 -8.22 208.53 -10.5 205.56 -10.5 Z M 203.61 -1.13 L 203.61 -9.38 L 205.56 -9.38 C 208 -9.38 209.76 -7.77 209.76 -5.25 C 209.76 -2.73 208 -1.13 205.56 -1.13 Z M 217.81 -10.5 L 217.81 0 L 225.16 0 L 225.16 -1.13 L 219.01 -1.13 L 219.01 -4.69 L 223.66 -4.69 L 223.66 -5.82 L 219.01 -5.82 L 219.01 -9.38 L 225.16 -9.38 L 225.16 -10.5 Z M 240.36 -2.86 L 239.28 -2.38 C 239.94 -0.96 241.42 0.15 243.24 0.15 C 245.76 0.15 247.17 -1.47 247.17 -2.91 C 247.17 -4.95 244.98 -5.47 243.3 -5.94 C 241.78 -6.36 240.64 -6.72 240.64 -7.77 C 240.64 -8.8 241.9 -9.53 242.98 -9.53 C 244.81 -9.51 245.32 -8.69 245.65 -7.86 L 246.76 -8.28 C 246.39 -9.22 245.56 -10.65 242.98 -10.65 C 241.41 -10.63 239.44 -9.58 239.44 -7.77 C 239.44 -5.88 241.35 -5.31 242.97 -4.86 C 244.65 -4.39 245.97 -4.06 245.97 -2.91 C 245.97 -2.04 245.02 -0.97 243.24 -0.97 C 241.95 -0.97 240.87 -1.77 240.36 -2.86 Z M 253.92 -10.5 L 253.92 0 L 255.12 0 L 255.12 -10.5 Z M 262.53 -10.5 L 262.53 0 L 263.73 0 L 263.73 -8.69 L 267.33 0 L 268.53 0 L 272.13 -8.69 L 272.13 0 L 273.33 0 L 273.33 -10.5 L 271.68 -10.5 L 267.93 -1.45 L 264.18 -10.5 Z M 280.74 -10.5 L 280.74 0 L 281.94 0 L 281.94 -3.94 L 285.24 -3.94 C 287.04 -3.94 288.51 -5.42 288.51 -7.23 C 288.51 -9.03 287.04 -10.5 285.24 -10.5 Z M 281.94 -5.07 L 281.94 -9.38 L 285.16 -9.38 C 286.35 -9.38 287.31 -8.41 287.31 -7.23 C 287.31 -6.03 286.35 -5.07 285.16 -5.07 Z M 295.29 -10.5 L 295.29 0 L 302.64 0 L 302.64 -1.13 L 296.49 -1.13 L 296.49 -10.5 Z M 309.28 -10.5 L 309.28 0 L 316.63 0 L 316.63 -1.13 L 310.48 -1.13 L 310.48 -4.69 L 315.13 -4.69 L 315.13 -5.82 L 310.48 -5.82 L 310.48 -9.38 L 316.63 -9.38 L 316.63 -10.5 Z" stroke-linecap="round" />
</g>
</g>
</g>
<g transform="matrix(1.9211538461538462 0 0 1.9211538461538462 644.5099086538462 395.1640101706253)" id="tagline-81184f7b-f5fb-4edc-871b-34431050d097-logo"  >
<g style=""  paint-order="stroke"   >
		<g transform="matrix(1 0 0 1 0 0)" id="tagline-81184f7b-f5fb-4edc-871b-34431050d097-logo-path-0"  >
<linearGradient id="SVGID_408360" gradientUnits="userSpaceOnUse" gradientTransform="matrix(1 0 0 1 3.1499999999999986 -63)"  x1="-3.172456741333008" y1="-16.122600000000006" x2="-3.172456741333008" y2="85.8774">
<stop offset="0%" style="stop-color:rgb(101,121,155);stop-opacity: 1"/>
<stop offset="100%" style="stop-color:rgb(94,37,99);stop-opacity: 1"/>
</linearGradient>
<path style="stroke: rgb(255,255,255); stroke-width: 0; stroke-dasharray: none; stroke-linecap: butt; stroke-dashoffset: 0; stroke-linejoin: miter; stroke-miterlimit: 4; fill: url(#SVGID_408360); fill-rule: nonzero; opacity: 1;"  paint-order="stroke"  transform=" translate(-24.21, 31.5)" d="M 3.15 -52.2 L 18.81 -52.2 L 18.81 0 L 29.61 0 L 29.61 -52.2 L 45.27 -52.2 L 45.27 -63 L 3.15 -63 Z" stroke-linecap="round" />
</g>
</g>
</g>
</svg>